/* XPM */
static char *bitcoin64_xpm[] = {
/* width height num_colors chars_per_pixel */
"    64    64      256            2",
/* colors */
"`` c #0462b4",
"`. c #84b6dc",
"`# c #049edc",
"`a c #44a2dc",
"`b c #c4deec",
"`c c #44bef4",
"`d c #84d2f4",
"`e c #0486cc",
"`f c #2c9edc",
"`g c #a4daf4",
"`h c #e4eef4",
"`i c #64c2ec",
"`j c #2472bc",
"`k c #0472bc",
"`l c #c4eefc",
"`m c #a4e2f4",
"`n c #04aeec",
"`o c #24b6ec",
"`p c #64cef4",
"`q c #34baec",
"`r c #54c2ec",
"`s c #3482c4",
"`t c #649ed4",
"`u c #d4e6f4",
"`v c #94def4",
"`w c #14b2ec",
"`x c #b4e2fc",
"`y c #1472bc",
"`z c #94d2f4",
"`A c #ecfafc",
"`B c #1c6ebc",
"`C c #c4e6fc",
"`D c #74cef4",
"`E c #046ab4",
"`F c #9cbee4",
"`G c #b4d2ec",
"`H c #04b6ec",
"`I c #34c2f4",
"`J c #4492cc",
"`K c #74aed4",
"`L c #44c6f4",
"`M c #64c6f4",
"`N c #d4eefc",
"`O c #24bef4",
"`P c #54caf4",
"`Q c #b4eafc",
"`R c #2c82c4",
"`S c #247abc",
"`T c #047ac4",
"`U c #3cbaf4",
"`V c #74d6f4",
"`W c #44baec",
"`X c #4cc2ec",
"`Y c #8cdaf4",
"`Z c #0492d4",
"`0 c #f4f6fc",
"`1 c #ace2f4",
"`2 c #5cc6f4",
"`3 c #14baf4",
"`4 c #bce2fc",
"`5 c #147abc",
"`6 c #9cdaf4",
"`7 c #fcfafc",
"`8 c #cce6f4",
".` c #0c6ab4",
".. c #dcf6fc",
".# c #84cef4",
".a c #04aae4",
".b c #549ed4",
".c c #cce2f4",
".d c #8cd2f4",
".e c #acdef4",
".f c #e4f6fc",
".g c #0c72bc",
".h c #0caeec",
".i c #2cb6ec",
".j c #54c6ec",
".k c #448ac4",
".l c #64aadc",
".m c #dceaf4",
".n c #9cd2ec",
".o c #7ccef4",
".p c #acceec",
".q c #bcdaec",
".r c #0cb6ec",
".s c #5496cc",
".t c #7caed4",
".u c #74caf4",
".v c #dceefc",
".w c #347ec4",
".x c #0c66b4",
".y c #c4e2f4",
".z c #44c2ec",
".A c #048ed4",
".B c #74bee4",
".C c #0476bc",
".D c #6ccef4",
".E c #34beec",
".F c #3c8ac4",
".G c #d4eaf4",
".H c #9cdef4",
".I c #1cb6ec",
".J c #1c72bc",
".K c #f4fafc",
".L c #046ebc",
".M c #a4c6e4",
".N c #6cb6dc",
".O c #6ccaf4",
".P c #2cbeec",
".Q c #2c7ec4",
".R c #3cbeec",
".S c #ace6fc",
".T c #bce6f4",
".U c #cceafc",
".V c #5ca6d4",
".W c #0466b4",
".X c #8cbadc",
".Y c #04a2e4",
".Z c #c4def4",
".0 c #84d6f4",
".1 c #048acc",
".2 c #34a2dc",
".3 c #a4def4",
".4 c #e4f2fc",
".5 c #6cc2ec",
".6 c #2476bc",
".7 c #cceefc",
".8 c #a4e2fc",
"#` c #04b2ec",
"#. c #74aad4",
"## c #049adc",
"#a c #8ccaec",
"#b c #bcd6ec",
"#c c #5ca2d4",
"#d c #1cbaec",
"#e c #3cc2f4",
"#f c #4c92cc",
"#g c #4cc6f4",
"#h c #5ccaf4",
"#i c #bceafc",
"#j c #7cd6f4",
"#k c #1c7abc",
"#l c #ecf6fc",
"#m c #247ec4",
"#n c #0c6ebc",
"#o c #9cd6f4",
"#p c #bcdef4",
"#q c #0cbaf4",
"#r c #24baec",
"#s c #3486c4",
"#t c #64a2d4",
"#u c #14b6ec",
"#v c #b4e6fc",
"#w c #1476bc",
"#x c #94d6f4",
"#y c #c4eafc",
"#z c #74d2f4",
"#A c #9cc2e4",
"#B c #64caf4",
"#C c #d4f2fc",
"#D c #047ec4",
"#E c #fcfefc",
"#F c #8cd6f4",
"#G c #0cb2ec",
"#H c #2cbaec",
"#I c #7cd2f4",
"#J c #549acc",
"#K c #dcf2fc",
"#L c #6cd2f4",
"#M c #9ce2f4",
"#N c #f4fefc",
"#O c #54c2f4",
"#P c #046abc",
"#Q c #04b6f4",
"#R c #4cc2f4",
"#S c #ace2fc",
"#T c #cce6fc",
"#U c #04aaec",
"#V c #acdefc",
"#W c #54c6f4",
"#X c #44c2f4",
"#Y c #0476c4",
"#Z c #34bef4",
"#0 c #d4eafc",
"#1 c #6cb6e4",
"#2 c #2cbef4",
"#3 c #3cbef4",
"#4 c #bce6fc",
"#5 c #000000",
"#6 c #000000",
"#7 c #000000",
"#8 c #000000",
"a` c #000000",
"a. c #000000",
"a# c #000000",
"aa c #000000",
"ab c #000000",
"ac c #000000",
"ad c #000000",
"ae c #000000",
"af c #000000",
"ag c #000000",
"ah c #000000",
"ai c #000000",
"aj c #000000",
"ak c #000000",
"al c #000000",
"am c #000000",
"an c #000000",
"ao c #000000",
"ap c #000000",
"aq c #000000",
"ar c #000000",
"as c #000000",
"at c #000000",
"au c #000000",
"av c #000000",
"aw c #000000",
"ax c #000000",
"ay c #000000",
"az c #000000",
"aA c #000000",
"aB c #000000",
"aC c #000000",
"aD c #000000",
"aE c #000000",
"aF c #000000",
"aG c #000000",
"aH c #000000",
"aI c #000000",
"aJ c #000000",
"aK c #000000",
"aL c #000000",
"aM c #000000",
"aN c #000000",
"aO c #000000",
"aP c #000000",
"aQ c #000000",
"aR c #000000",
"aS c #000000",
"aT c #000000",
"aU c #000000",
"aV c #000000",
"aW c #000000",
"aX c #000000",
"aY c #000000",
"aZ c #000000",
"a0 c #000000",
"a1 c #000000",
"a2 c #000000",
"a3 c #000000",
"a4 c #000000",
"a5 c #000000",
"a6 c #000000",
"a7 c #000000",
"a8 c #000000",
/* pixels */
"#E#E#E#E#E#E#E#E#E#E#E#E#E#E#E#E#E#E#E#E#E#E#E#E#E#E#E#E#E#E#E#l#V`g.4#E#E#E#E#E#E#E#E#E#E#E#E#E#E#E#E#E#E#E#E#E#E#E#E#E#E#E#E#E",
"#E#E#E#E#E#E#E#E#E#E#E#E#E#E#E#E#E#E#E#E#E#E#E#E#E#E#E#E#E#E#4.d.o.o`d`x`A#E#E#E#E#E#E#E#E#E#E#E#E#E#E#E#E#E#E#E#E#E#E#E#E#E#E#E",
"#E#E#E#E#E#E#E#E#E#E#E#E#E#E#E#E#E#E#E#E#E#E#E#E#E#E#E#E`N#x.o.o.o.o.o.o.d#y#E#E#E#E#E#E#E#E#E#E#E#E#E#E#E#E#E#E#E#E#E#E#E#E#E#E",
"#E#E#E#E#E#E#E#E#E#E#E#E#E#E#E#E#E#E#E#E#E#E#E#E#E#E.f`g.o.o.o.#.o.o.#.o.o.o#o`N#E#E#E#E#E#E#E#E#E#E#E#E#E#E#E#E#E#E#E#E#E#E#E#E",
"#E#E#E#E#E#E#E#E#E#E#E#E#E#E#E#E#E#E#E#E#E#E#E#E.K`x.#.o.o.#.o.o.o.#.o.o.#.o.o.#.3.f#E#E#E#E#E#E#E#E#E#E#E#E#E#E#E#E#E#E#E#E#E#E",
"#E#E#E#E#E#E#E#E#E#E#E#E#E#E#E#E#E#E#E#E#E#E#E#y.d.o.o.#.o.o.o.#.o.o.o.o.o.o.o.o.o`d`x.K#E#E#E#E#E#E#E#E#E#E#E#E#E#E#E#E#E#E#E#E",
"#E#E#E#E#E#E#E#E#E#E#E#E#E#E#E#E#E#E#E#E#E#C#o.o.o.o.o.o.o.#.o.o.o.#.o.#.o.#.o.#.o.#.o.d.U#E#E#E#E#E#E#E#E#E#E#E#E#E#E#E#E#E#E#E",
"#E#E#E#E#E#E#E#E#E#E#E#E#E#E#E#E#E#E#E.f`x.o.o.o.#.o.#.o.o.o.o.#.o.o.o.o.o.o.o.o.o.o.o.o.o#x#K#E#E#E#E#E#E#E#E#E#E#E#E#E#E#E#E#E",
"#E#E#E#E#E#E#E#E#E#E#E#E#E#E#E#E#E#l#z#H`M.#.#.o.o.o.o.#.o.#.o.o.o.#.o.#.o.#.o.#.o.#.o.o.o.d#V`N.K#E#E#E#E#E#E#E#E#E#E#E#E#E#E#E",
"#E#E#E#E#E#E#E#E#E#E#E#E#E#E#E#E`v#d`n`n`n#Z.u.d.#.o.o.o.o.o.o.#.o.o.o.o.o.o.o.o.o.o.o.#`g`4#4`4#4.v#E#E#E#E#E#E#E#E#E#E#E#E#E#E",
"#E#E#E#E#E#E#E#E#E#E#E#E#E#E#i#e`n#``n`n`n`n#G#R.o.d.o.#.o.#.o.o.o.#.o.#.o.#.o.#.o.o#x`x#4`4`x`4`4`x`C.f#E#E#E#E#E#E#E#E#E#E#E#E",
"#E#E#E#E#E#E#E#E#E#E#E#E#C#h`n`n`n`n#``n`n`n`n`n`w`2.#`d.o.o.o.#.o.o.o.o.o.o.o.o.d#V`C`4`4`4.T`4#v`4.T`4.U#l#E#E#E#E#E#E#E#E#E#E",
"#E#E#E#E#E#E#E#E#E#E`A`V`w`n#``n#``n`n`n#``n`n`n`n`n#r.O.#`d.o.o.o.#.o.#.o.o.#`g#4`4`4`x.T`x`4`4.T`4`4`x`4.T`N.K#E#E#E#E#E#E#E#E",
"#E#E#E#E#E#E#E#E#E#M#r`n`n`n`n`n`n`n#``n`n#``n#``n`n`n`n#3.o.#.#.o.o.o.o.o`6`4#4`4`4.T`4`4`4#v.T`x.T`4`4`4`x`4#4#K#E#E#E#E#E#E#E",
"#E#E#E#E#E#E#E#i#X`n`n`n#``n#``n#``n`n`n`n`n`n`n#``n`n`n`n#G#O.o.d.o.o#x`x`4#4`4`4`4`x`4#v.T`4`4.T`x.T`x.T`4`4`4`4`C.f#E#E#E#E#E",
"#E#E#E#E#E#K`P`n#``n`n`n`n`n`n`n`n`n#``n#``n#``n`n`n`n`n`n`n#U.I`2#x#V#4`4`4`4#v`4.T`4`4.T`4`x.T#p`4`4`4`4`x.T`x.T`4`4.U#l#E#E#E",
"#E#E#E#E#E#a`O#`#``n#``n#``n#``n#``n`n`n`n`n`n`n#``n#``n`n`n#`#r`v`N#0`C`4#v`4.T`4`x.T`x`4.T`4`4`x`4`x.T.T`4`4`4`4`x`4.T.4#E#E#E",
"#E#E#E#E#E`s.V`i#d#``n`n`n`n`n`n`n#``n#``n#``n`n`n`n`n#``n#G#z.S#W#X#i.7`8`C`4`x.T`4`4.T`x`4`x.T`4.T.T`x`4`x.T`x.T.T`N`7#E#E#E#E",
"#E#E#E#E#E#m``#m.N#O#q#``n#``n#``n`n`n`n`n`n#``n#``n`n`n`P.S#j`w#``n.a.D.7.U`C.T`4`x.T`4.T`4.T`4`x.T`4`4.T.T`4.T.U`0#E#E#E#E#E#E",
"#E#E#E#E#E.Q`E.W``.F.B.z#`#``n`n`n#``n#``n`n`n`n`n`n#Z#M`v#2`n`n`n#``n`n`w`Y`N`N#y`4`x.T`x.T`x.T`4`4`x.T`x`4`C.4#E#E#E#E#E#E#E#E",
"#E#E#E#E#E#m`E.W#P.W.`.b.5#2#Q`n`n`n`n`n#``n#``n.I`v.S#g`n`n`n#``n`n#``n`n`n`I.e`8`N#y`4.T#p`4`4`x.T.T#p.T.4#E#E#E#E#E#E#E#E#E#E",
"#E#E#E#E#E.Q#P.W#P.W#P```y.l`i#d#`#``n`n`n`n`n#L#y`x.##R#G`n`n`n`n`n`n#``H`n.A.W#f`b`8#y.T`x`4.T`4`x`4`N.K#E#E#E#E#E#E#E#E#E#E#E",
"#E#E#E#E#E#m`E.W#P.W#P.W`E.W`R.N#W.r#`#``n#g#i#4`z.o.#`d.u`q`n`n#``n`H#`##.L``.W.W``#.`u.U.U.T`x.T`8`A#E#E#E#E#E#E#E#E#E#E#E#E#E",
"#E#E#E#E#E.Q#P.W`E.W#P.W#P.W.W.W`J.5.E#H.8#y#o.#.o.o.o.o.#`d`M`o`n#`.Y#D``.W`E.W`E.W.W`B#A`8.U.U.4#E#E#E#E#E#E#E#E#E#E#E#E#E#E#E",
"#E#E#E#E#E#m`E.W#P.W#P.W`E.W#P.W.W.`#c#0#S.#.o.o.o.#.o.o.#.o`d.##B`f.W``#P.W#P.W#P.W`E.W.W.w.G`7#E#E#E#E#E#E#E#E#E#E#E#E#E#E#E#E",
"#E#E#E#E#E.Q#P.W#P.W`E.W#P.W#P.W#P.W.J.Z#v`d.o.o.o.o.#.o.o.o.#`x#l#l#..g`E.W#P.W`E.W#P.W`R.M`7#E#E#E#E#E#E#E#E#E#E#E#E#E#E#E#E#E",
"#E#E#E#E#E#m`E.W#P.W#P.W#P.W#P.W`E.W`S.Z.U`4`6.#.o.o.o.o.#`6#K#E#E#E#E`u#J.W#P.W#P.W#w`..K#E#E#E#E#E#E#E#E#E#E#E#E#E#E#E#E#E#E#E",
"#E#E#E#E#E.Q#P.W`E.W#P.W#P.W`E.W#P.W.6.y#y`4#4`x#o.o.o#F.U#E#E#E#E#E#E#E#E`G#s#P`E#t.m#E#E#E#E#E#E#E#E#E#E#E#E#E#E#E#E#E#E#E#E#E",
"#E#E#E#E#E#m`E.W#P.W#P.W`E.W#P.W#P#P.6.Z#y`4`4.T#4`x`x.K#E#E#E#E#E#E#E#E#E#E.K#A`G#E#E#E#E#E#E#E#E#E#E#E#E#E#E#E#E#E#E#E#E#E#E#E",
"#E#E#E#E#E.Q#P.W#P.W`E.W#P.W#P.W`E.W.6.Z#y.T`x`4`4`4#l#E#E#E#E#E#E#E#E#E#E#E#E#E#E#E#E#E#E#E#E#E#E#E#E#E#E#E#E#E#E#E#E#E#E#E#E#E",
"#E#E#E#E#E#m`E.W#P.W#P.W#P.W#P.W#P.W`S.Z#y`4`4`4`x`4.f#E#E#E#E#E#E#E#E#E#E#E#E#E#E#E#E#E#E#E#E#E#E#E#E#E#E#E#E#E#E#E#E#E#E#E#E#E",
"#E#E#E#E#E.Q#P.W`E.W#P.W#P.W#P.W#P.W.6.y#y`x.T`4.T`4.4#E#E#E#E#E#E#E#E#E#E#E#E#E#E#E#E#E#E#E#E#E#E#E#E#E#E#E#E#E#E#E#E#E#E#E#E#E",
"#E#E#E#E#E#m`E.W#P.W#P.W`E.W#P.W`E#P.6.Z#y`4`4`x`4#v.f#E#E#E#E#E#E#E#E#E#E#E#E#E#E#E#E#E#E#E#E#E#E#E#E#E#E#E#E#E#E#E#E#E#E#E#E#E",
"#E#E#E#E#E.Q#P.W#P.W`E.W#P.W#P.W#P.W.6.Z#y.T`x.T`4.T.4#E#E#E#E#E#E#E#E#E#E#E#E#E#E#E#E#E#E#E#E#E#E#E#E#E#E#E#E#E#E#E#E#E#E#E#E#E",
"#E#E#E#E#E#m`E.W#P.W#P.W#P.W`E.W#P.W`S.Z#y`4`4`4`x`4.f#E#E#E#E#E#E#E#E#E#E#E#E#E#E#E#E#E#E#E#E#E#E#E#E#E#E#E#E#E#E#E#E#E#E#E#E#E",
"#E#E#E#E#E.Q#P.W`E.W#P.W#P.W#P.W#P.W.6.y#y`x.T`4.T`4#l#E#E#E#E#E#E#E#E#E#E#E#E#E#E#E#E#E#E#E#E#E#E#E#E#E#E#E#E#E#E#E#E#E#E#E#E#E",
"#E#E#E#E#E#m`E.W#P.W#P.W`E.W#P.W`E#P.6.Z#y`4`4`4.T`4.U#E#E#E#E#E#E#E#E#E#E#E#E#b`u#E#E#E#E#E#E#E#E#E#E#E#E#E#E#E#E#E#E#E#E#E#E#E",
"#E#E#E#E#E.Q#P.W#P.W`E.W#P.W#P.W#P.W.6.Z#y.T.T.T`x.d.o#x`N#E#E#E#E#E#E#E#E`u.s.W.g`.#l#E#E#E#E#E#E#E#E#E#E#E#E#E#E#E#E#E#E#E#E#E",
"#E#E#E#E#E#m`E.W#P.W#P.W#P.W`E.W#P.W`S.Z#y`C`x#o.o.o.o.o.##V.f#E#E#E#E`h`K#n.W#P.W.W.Q.M#E#E#E#E#E#E#E#E#E#E#E#E#E#E#E#E#E#E#E#E",
"#E#E#E#E#E.Q#P.W`E.W#P.W#P.W#P.W#P.W.6.c#y`g.o.o.o.o.o.o.o.o`d#4.K#E`F#k.W#P.W#P#P`E#P`E`J#b#E#E#E#E#E#E#E#E#E#E#E#E#E#E#E#E#E#E",
"#E#E#E#E#E#m`E.W#P.W#P.W`E.W#P.W.W```5#4`1`d.o.#.o.#.o.#.o.o`d.#`D`a.W.W.W#P.W`E.W.W.W#P``.w.c#E#E#E#E#E#E#E#E#E#E#E#E#E#E#E#E#E",
"#E#E#E#E#E.Q#P.W#P.W`E.W#P.W#P``#P.1#U.I.0`x#x.#.o.o.o.o`d.#.u.i`n#`###Y``.W#P.W#P#P.W`y`..q.U`C.4#E#E#E#E#E#E#E#E#E#E#E#E#E#E#E",
"#E#E#E#E#E#m`E.W#P.W#P.W#P``.W`T.Y#Q#``n`n#e.3#S`z.#.o.d.o`U.h`n`n`n#Q`n`Z#P``.W.W``#c#b.U#y#4`x#4`C#l#E#E#E#E#E#E#E#E#E#E#E#E#E",
"#E#E#E#E#E.Q#P.W`E.W#P.W``.C###`#``n`n`n`n`n`n#h#v.3.#`r`w`n`n`n#``n`n#`#`#U`e``.F.p.c#y#4`4`4`4`4.T`4`N.K#E#E#E#E#E#E#E#E#E#E#E",
"#E#E#E#E#E#m`E.W#P.W``.L.A`n#Q`n`n`n#``n#``n#``n`w.0.3.R`n`n`n`n`n#``n`n#``n`O.n.Z.7#y`4`4`4#v`4`4`x`4`4#4#K#E#E#E#E#E#E#E#E#E#E",
"#E#E#E#E#E.Q#P.W``.W`e#U#`#``n`n#``n`n`n`n`n`n`n`n`n#H#F#F`o#``n`n`n#``n.h#I#y.U#y`4`4`x.T`4`4.T`x.T`4#v`4`4`C.f#E#E#E#E#E#E#E#E",
"#E#E#E#E#E#m.W.W`T.Y#`#``n`n`n`n`n#``n#``n#``n#``n`n`n#`#g.H`D#G#``n#U#h.T#0`C`4.T`4.T`4`4`x.T`4`4`4.T`4.T`x`4`4.U`A#E#E#E#E#E#E",
"#E#E#E#E#E`S`k##`n#`#``n`n#``n#``n`n`n`n`n`n`n`n#``n`n`n`n#G.D.3`X.R`1.U#T.T`4`4`4`x`4`x.T`4`x.T`x.T`x`4`4.T`4`4`4`4`N#N#E#E#E#E",
"#E#E#E#E#E.2`n#`#``n`n`n`n`n`n`n#``n#``n#``n#``n`n#``n#``n`n#`.I`Y.U#0`C`4`4.T`x.T`4.T`4`4`4.T`4.T`4.T`x.T`x.T`x`4.T`4#4.4#E#E#E",
"#E#E#E#E#E..#h#``n`n#``n#``n#``n`n`n`n`n`n`n`n#``n`n`n`n#``n`n`o.O.d.e.T.T`x`4`4`4`x`4`x.T`x`4`x.T`x`4.T#p`4`4.T`4`x`4.U`A#E#E#E",
"#E#E#E#E#E#E#E#i`L`n`n`n`n`n`n#``n#``n#``n#``n`n`n#``n`n#U#u#O.#.#.o.o.d`x`4.T`4.T`4.T`4`4.T`4.T#p`4`x`4`x`4`x.T`4#y#l#E#E#E#E#E",
"#E#E#E#E#E#E#E#E#E.8`O`n#``n`n`n`n`n`n`n`n`n`n#``n`n`n#``c.o`d.#.o.o.o.o.o#o`x.T`4`x`4`x.T`x.T`x`4.T`4.T`4.T`4.T#K`7#E#E#E#E#E#E",
"#E#E#E#E#E#E#E#E#E#E`A#z#u`n#``n#``n#``n#``n`n`n`n`n#H.u`d.#.o.o.o.o.o.o.o.o.#`g.T.T`4.T`4`4`4.T`x`4`x.T`x.T.G.K#E#E#E#E#E#E#E#E",
"#E#E#E#E#E#E#E#E#E#E#E#E#C`P`n`n`n`n`n`n`n#``n`n.I`M`d.#.o.o.o.#.o.#.o.#.o.o.o.o.d#V.T`4`4`x.T`4.T`4.T#p.U#l#E#E#E#E#E#E#E#E#E#E",
"#E#E#E#E#E#E#E#E#E#E#E#E#E#E#i#e#``n#``n`n`n#G#O.o`d.o.o.o.#.o.o.o.o.o.o.#.o.#.o.o.o#x`x.T`4.T`x`4`x`C.f#E#E#E#E#E#E#E#E#E#E#E#E",
"#E#E#E#E#E#E#E#E#E#E#E#E#E#E#E#E`v.I`n`n`n#3.u.d.o.o.#.o.o.o.#.o.#.o.#.o.o.o.o.o.o.o.o.#`g`4`4.T`4.m#E#E#E#E#E#E#E#E#E#E#E#E#E#E",
"#E#E#E#E#E#E#E#E#E#E#E#E#E#E#E#E#E.f#L#H.O`d.#.o.o.#.o.o.#.o.o.o.o.o.o.#.o.#.o.#.o.#.o.o.o`d.e.G.K#E#E#E#E#E#E#E#E#E#E#E#E#E#E#E",
"#E#E#E#E#E#E#E#E#E#E#E#E#E#E#E#E#E#E#E.4#V.o.o.o.#.o.o.o.o.#.o.#.o.#.o.o.o.o.o.o.o.o.o.o.o#o#K#E#E#E#E#E#E#E#E#E#E#E#E#E#E#E#E#E",
"#E#E#E#E#E#E#E#E#E#E#E#E#E#E#E#E#E#E#E#E#E`N#x.o.o.o.#.o.o.o.o.o.o.o.#.o.#.o.#.o.#.o.#`z.U#E#E#E#E#E#E#E#E#E#E#E#E#E#E#E#E#E#E#E",
"#E#E#E#E#E#E#E#E#E#E#E#E#E#E#E#E#E#E#E#E#E#E#E`C.d.o.o.#.o.#.o.#.o.o.o.o.o.o.o.o.o.##v.K#E#E#E#E#E#E#E#E#E#E#E#E#E#E#E#E#E#E#E#E",
"#E#E#E#E#E#E#E#E#E#E#E#E#E#E#E#E#E#E#E#E#E#E#E#E`A`x.o.o.o.o.o.o.#.o.#.o.#.o.#.o#V#l#E#E#E#E#E#E#E#E#E#E#E#E#E#E#E#E#E#E#E#E#E#E",
"#E#E#E#E#E#E#E#E#E#E#E#E#E#E#E#E#E#E#E#E#E#E#E#E#E#E.4`6.#.o.#.o.o.o.o.o.o.o#o#K#E#E#E#E#E#E#E#E#E#E#E#E#E#E#E#E#E#E#E#E#E#E#E#E",
"#E#E#E#E#E#E#E#E#E#E#E#E#E#E#E#E#E#E#E#E#E#E#E#E#E#E#E#E.U#F.o.o.#.o.#.o.d#y#E#E#E#E#E#E#E#E#E#E#E#E#E#E#E#E#E#E#E#E#E#E#E#E#E#E",
"#E#E#E#E#E#E#E#E#E#E#E#E#E#E#E#E#E#E#E#E#E#E#E#E#E#E#E#E#E.K#4.#.o.o.#`x.K#E#E#E#E#E#E#E#E#E#E#E#E#E#E#E#E#E#E#E#E#E#E#E#E#E#E#E"
};
