/* XPM */
static char *bitcoin32_xpm[] = {
/* width height num_colors chars_per_pixel */
"    32    32      256            2",
/* colors */
"`` c #0462b4",
"`. c #84b6dc",
"`# c #049ee4",
"`a c #ccdeec",
"`b c #5ca2d4",
"`c c #0486cc",
"`d c #84d2f4",
"`e c #04b6f4",
"`f c #a4daf4",
"`g c #44bef4",
"`h c #e4eaf4",
"`i c #2476bc",
"`j c #64c6f4",
"`k c #24baec",
"`l c #0476c4",
"`m c #349ed4",
"`n c #3482c4",
"`o c #ace2fc",
"`p c #c4eefc",
"`q c #94d6f4",
"`r c #34c2f4",
"`s c #04aeec",
"`t c #e4f6fc",
"`u c #54caf4",
"`v c #74cef4",
"`w c #046ab4",
"`x c #9cc6e4",
"`y c #2482c4",
"`z c #34baec",
"`A c #94def4",
"`B c #c4e6fc",
"`C c #a4def4",
"`D c #347abc",
"`E c #1476bc",
"`F c #bce2fc",
"`G c #f4fafc",
"`H c #74aadc",
"`I c #14b6ec",
"`J c #4cc6ec",
"`K c #549ad4",
"`L c #d4eefc",
"`M c #1caae4",
"`N c #146ebc",
"`O c #84cef4",
"`P c #04a6e4",
"`Q c #049adc",
"`R c #8cd2f4",
"`S c #4cc2ec",
"`T c #2c76bc",
"`U c #64cef4",
"`V c #34aee4",
"`W c #448ecc",
"`X c #9cdaf4",
"`Y c #7ccef4",
"`Z c #0c6ab4",
"`0 c #3cbeec",
"`1 c #d4e6f4",
"`2 c #8cbedc",
"`3 c #0c9edc",
"`4 c #6caad4",
"`5 c #acd6ec",
"`6 c #ecf2fc",
"`7 c #247abc",
"`8 c #6ccaf4",
".` c #2cb6ec",
".. c #047ec4",
".# c #3c82c4",
".a c #b4e2fc",
".b c #3cc2f4",
".c c #0cb2ec",
".d c #ecf6fc",
".e c #5cc6f4",
".f c #046ebc",
".g c #acceec",
".h c #1c8acc",
".i c #9cdefc",
".j c #cceafc",
".k c #acdef4",
".l c #1c7abc",
".m c #bceafc",
".n c #fcfefc",
".o c #1cb6ec",
".p c #dcf6fc",
".q c #0466b4",
".r c #04a2e4",
".s c #ccdef4",
".t c #64a2d4",
".u c #048ed4",
".v c #84d6f4",
".w c #0cbaf4",
".x c #44c2f4",
".y c #e4eef4",
".z c #64caf4",
".A c #3c9ed4",
".B c #3486c4",
".C c #cceefc",
".D c #94daf4",
".E c #04b2ec",
".F c #74d2f4",
".G c #046abc",
".H c #9ccaec",
".I c #34beec",
".J c #94defc",
".K c #c4eafc",
".L c #a4defc",
".M c #347ebc",
".N c #1c72bc",
".O c #bce6fc",
".P c #f4fefc",
".Q c #7cb2dc",
".R c #dcf2fc",
".S c #14b2ec",
".T c #0c96dc",
".U c #8cd6f4",
".V c #4cc2f4",
".W c #3caadc",
".X c #9cdafc",
".Y c #7cd2f4",
".Z c #3cbef4",
".0 c #8cc2e4",
".1 c #acdaf4",
".2 c #247ac4",
".3 c #2cbaec",
".4 c #047ecc",
".5 c #b4e6fc",
".6 c #3cc6f4",
".7 c #ecfafc",
".8 c #5ccaf4",
"#` c #2c8ecc",
"#. c #1cbaec",
"## c #000000",
"#a c #000000",
"#b c #000000",
"#c c #000000",
"#d c #000000",
"#e c #000000",
"#f c #000000",
"#g c #000000",
"#h c #000000",
"#i c #000000",
"#j c #000000",
"#k c #000000",
"#l c #000000",
"#m c #000000",
"#n c #000000",
"#o c #000000",
"#p c #000000",
"#q c #000000",
"#r c #000000",
"#s c #000000",
"#t c #000000",
"#u c #000000",
"#v c #000000",
"#w c #000000",
"#x c #000000",
"#y c #000000",
"#z c #000000",
"#A c #000000",
"#B c #000000",
"#C c #000000",
"#D c #000000",
"#E c #000000",
"#F c #000000",
"#G c #000000",
"#H c #000000",
"#I c #000000",
"#J c #000000",
"#K c #000000",
"#L c #000000",
"#M c #000000",
"#N c #000000",
"#O c #000000",
"#P c #000000",
"#Q c #000000",
"#R c #000000",
"#S c #000000",
"#T c #000000",
"#U c #000000",
"#V c #000000",
"#W c #000000",
"#X c #000000",
"#Y c #000000",
"#Z c #000000",
"#0 c #000000",
"#1 c #000000",
"#2 c #000000",
"#3 c #000000",
"#4 c #000000",
"#5 c #000000",
"#6 c #000000",
"#7 c #000000",
"#8 c #000000",
"a` c #000000",
"a. c #000000",
"a# c #000000",
"aa c #000000",
"ab c #000000",
"ac c #000000",
"ad c #000000",
"ae c #000000",
"af c #000000",
"ag c #000000",
"ah c #000000",
"ai c #000000",
"aj c #000000",
"ak c #000000",
"al c #000000",
"am c #000000",
"an c #000000",
"ao c #000000",
"ap c #000000",
"aq c #000000",
"ar c #000000",
"as c #000000",
"at c #000000",
"au c #000000",
"av c #000000",
"aw c #000000",
"ax c #000000",
"ay c #000000",
"az c #000000",
"aA c #000000",
"aB c #000000",
"aC c #000000",
"aD c #000000",
"aE c #000000",
"aF c #000000",
"aG c #000000",
"aH c #000000",
"aI c #000000",
"aJ c #000000",
"aK c #000000",
"aL c #000000",
"aM c #000000",
"aN c #000000",
"aO c #000000",
"aP c #000000",
"aQ c #000000",
"aR c #000000",
"aS c #000000",
"aT c #000000",
"aU c #000000",
"aV c #000000",
"aW c #000000",
"aX c #000000",
"aY c #000000",
"aZ c #000000",
"a0 c #000000",
"a1 c #000000",
"a2 c #000000",
"a3 c #000000",
"a4 c #000000",
"a5 c #000000",
"a6 c #000000",
"a7 c #000000",
"a8 c #000000",
/* pixels */
".n.n.n.n.n.n.n.n.n.n.n.n.n.n.d.k.L`t.n.n.n.n.n.n.n.n.n.n.n.n.n.n",
".n.n.n.n.n.n.n.n.n.n.n.n`G.O`d`Y`Y`O.a.7.n.n.n.n.n.n.n.n.n.n.n.n",
".n.n.n.n.n.n.n.n.n.n.n.K`q`Y`Y`O`Y`Y`O.U`B`G.n.n.n.n.n.n.n.n.n.n",
".n.n.n.n.n.n.n.n.n.C.1`Y`Y`O`Y`Y`O`Y`Y`Y`Y`q`L.n.n.n.n.n.n.n.n.n",
".n.n.n.n.n.n.n.C`u`k.e`O`d`Y`Y`Y`Y`Y`O`Y`Y`R.k`L.d.n.n.n.n.n.n.n",
".n.n.n.n.n`t.F.c`s`s`s`z`8`O`O`O`Y`Y`Y`d`f.O`F`F.O`L`G.n.n.n.n.n",
".n.n.n.7.J.o`s`s`s`s`s`s.c`g`v`O`Y`O.X.a`F`F.O`F`F`F.O.R.n.n.n.n",
".n.n.m`r`s`s.E`s.E`s.E`s`s`s.S.z`f`B`F`F.O`F`F.a.O`F`F`F`B`t.n.n",
".n.n.A`M.w.E`s`s`s`s`s`s`s.E.x`u`d.O.j`B.a`F.O`F.a`F.5`F.j.d.n.n",
".n.n.N.l`m`k.E.E`s.E`s`s.3.8.b.S.c.x`A`B.K.O.a`F.O`F`B`t.n.n.n.n",
".n.n.l.q.q`y.W`I.E`s.o.F.U.b`s`s.E`s`3`b.g.K.K.O.O.R.n.n.n.n.n.n",
".n.n.l.q.G```Z#``V`u.D`q`d`O.e.o.r...q```E`H`5`1`G.n.n.n.n.n.n.n",
".n.n.2.q.G.q.G```n`5.i`Y`v`Y.X.a.0`i.q.q.q`D`a.n.n.n.n.n.n.n.n.n",
".n.n.l.q.G.q.G``.l`5.K.X`R.a`t.n.n`1`4.B`..y.n.n.n.n.n.n.n.n.n.n",
".n.n.l.q.G.q.G.q.2`5.j`F.j.n.n.n.n.n.n.y.n.n.n.n.n.n.n.n.n.n.n.n",
".n.n.2.q.G.q.G``.2`5.j`F`L.n.n.n.n.n.n.n.n.n.n.n.n.n.n.n.n.n.n.n",
".n.n.l.q.G.q.G.q`7`5`p`F`L.n.n.n.n.n.n.n.n.n.n.n.n.n.n.n.n.n.n.n",
".n.n.l.q.G.q.G``.2`5.j.O.j.n.n.n.n.n.n`6.n.n.n.n.n.n.n.n.n.n.n.n",
".n.n.2.q.G.q`w.q.2`5.j`C`q.a.7.n.n.y.Q`W`2`G.n.n.n.n.n.n.n.n.n.n",
".n.n.l.q.G.q.G```i.1.L`Y`Y`Y.X.O`x`D.q.G.q.#.s.n.n.n.n.n.n.n.n.n",
".n.n.l.q.G.q```l`Q`S.v`R`d`O`j.o`3.4.q```Z.t`5`L`G.n.n.n.n.n.n.n",
".n.n.2.q``.f.u`s.E`s.S`8.U`0`s`s.E`s`Q`K.H`B.K`F.O.R.n.n.n.n.n.n",
".n.n.N.G`c`P.E.E`s.E`s`s.3.V.I.c.c.Z.D.O.K.O`F.a`F`F`B`t.n.n.n.n",
".n.n.h`#.E.E.E`s`s`s.E`s.E.E`0.V`d.O.j`B`F`F`F.O`F.a`F`F.j.d.n.n",
".n.n.5.6.E`s`s`s.E`s`s`s`s`s.o`j`f`F.O`F.a.O.a`F`F.O.a`F`B`t.n.n",
".n.n.n.d.J#.`s`s`s.E`s`s.c`g`v`O`Y`O`X.a.O`F`F.O.a`F.O.R.P.n.n.n",
".n.n.n.n.n`t.F.E`s`s`s.3`8`O`O`O`Y`Y`Y`O`C`F.O`F.O`L`G.n.n.n.n.n",
".n.n.n.n.n.n.n.C`u`k`j`d`O`Y`Y`Y`Y`Y`Y`Y`Y`R.k.j.7.n.n.n.n.n.n.n",
".n.n.n.n.n.n.n.n.n.j.L`Y`O`Y`O`Y`O`Y`O`Y`Y`q`L.n.n.n.n.n.n.n.n.n",
".n.n.n.n.n.n.n.n.n.n.n`B`q`Y`Y`Y`Y`Y`Y`q`B`G.n.n.n.n.n.n.n.n.n.n",
".n.n.n.n.n.n.n.n.n.n.n.n.7`F`d`O`Y`d`F.d.n.n.n.n.n.n.n.n.n.n.n.n",
".n.n.n.n.n.n.n.n.n.n.n.n.n.n`t`C`f`t.n.n.n.n.n.n.n.n.n.n.n.n.n.n"
};
