/* XPM */
static char *bitcoin16_xpm[] = {
/* width height num_colors chars_per_pixel */
"    16    16      256            2",
/* colors */
"`` c #ffffff",
"`. c #e7f6fd",
"`# c #a5dcf7",
"`a c #a2dbf7",
"`b c #e4f5fc",
"`c c #ecf8fd",
"`d c #bee5f8",
"`e c #83cff4",
"`f c #7ecef4",
"`g c #7fcef4",
"`h c #aee0f8",
"`i c #f4fafe",
"`j c #f8fcfe",
"`k c #93ddf6",
"`l c #22b7ee",
"`m c #45bff0",
"`n c #7dcef4",
"`o c #86d0f4",
"`p c #7bcdf4",
"`q c #9ad8f6",
"`r c #bce4f9",
"`s c #dff2fc",
"`t c #fcfdfe",
"`u c #b6e8fa",
"`v c #2cbff0",
"`w c #00afec",
"`x c #00aeec",
"`y c #00adec",
"`z c #13b3ed",
"`A c #5cc6f1",
"`B c #9dd8f6",
"`C c #b8e2f9",
"`D c #bee4f9",
"`E c #bbe3f9",
"`F c #bae3f9",
"`G c #c2e6f9",
"`H c #e6f5fc",
"`I c #2b92d0",
"`J c #0ea8e5",
"`K c #04b5f0",
"`L c #00b0ed",
"`M c #03adec",
"`N c #28b9ee",
"`O c #34bcef",
"`P c #68cff5",
"`Q c #b2e4f9",
"`R c #c8eafd",
"`S c #bde5fa",
"`T c #c6e8fa",
"`U c #e9f6fd",
"`V c #1671ba",
"`W c #0c6eb9",
"`X c #1e94d3",
"`Y c #2bb7ec",
"`Z c #69ccf4",
"`0 c #72ccf3",
"`1 c #21b8ef",
"`2 c #009ce0",
"`3 c #1c84c8",
"`4 c #74aeda",
"`5 c #bfe2f7",
"`6 c #e4f4fd",
"`7 c #fefefe",
"`8 c #1976be",
".` c #0067b6",
".. c #005cb0",
".# c #6faedb",
".a c #aae0fb",
".b c #91d5f6",
".c c #cceaf9",
".d c #a9cce7",
".e c #277abe",
".f c #679ccf",
".g c #f6fafc",
".h c #0068b7",
".i c #0060b3",
".j c #6ba9d8",
".k c #caedfd",
".l c #e2f3fc",
".m c #fdfdfe",
".n c #e3f4fc",
".o c #0067b7",
".p c #6cacda",
".q c #afe3fb",
".r c #95d7f6",
".s c #cfecfa",
".t c #afd0e8",
".u c #2e7ec0",
".v c #6ea0d1",
".w c #f5f9fc",
".x c #1872bb",
".y c #0085cd",
".z c #1ab0e9",
".A c #62caf3",
".B c #70caf3",
".C c #23b8ef",
".D c #009ade",
".E c #187fc5",
".F c #6caad9",
".G c #bde2f7",
".H c #fdfefe",
".I c #1285ca",
".J c #00a3e3",
".K c #00b4f0",
".L c #22b7ec",
".M c #2eb9ec",
".N c #65cdf4",
".O c #b2e3f9",
".P c #c7eafc",
".Q c #c5e7fa",
".R c #e8f5fd",
".S c #b3e7f9",
".T c #30c0f1",
".U c #15b3ed",
".V c #5dc6f1",
".W c #c3e6f9",
".X c #e7f5fc",
".Y c #22b8ee",
".Z c #47c0f0",
".0 c #85d0f4",
".1 c #bde4f9",
".2 c #e0f2fc",
".3 c #fcfefe",
".4 c #afe1f8",
".5 c #a3dcf7",
".6 c #e5f5fc",
".7 c #000000",
".8 c #000000",
"#` c #000000",
"#. c #000000",
"## c #000000",
"#a c #000000",
"#b c #000000",
"#c c #000000",
"#d c #000000",
"#e c #000000",
"#f c #000000",
"#g c #000000",
"#h c #000000",
"#i c #000000",
"#j c #000000",
"#k c #000000",
"#l c #000000",
"#m c #000000",
"#n c #000000",
"#o c #000000",
"#p c #000000",
"#q c #000000",
"#r c #000000",
"#s c #000000",
"#t c #000000",
"#u c #000000",
"#v c #000000",
"#w c #000000",
"#x c #000000",
"#y c #000000",
"#z c #000000",
"#A c #000000",
"#B c #000000",
"#C c #000000",
"#D c #000000",
"#E c #000000",
"#F c #000000",
"#G c #000000",
"#H c #000000",
"#I c #000000",
"#J c #000000",
"#K c #000000",
"#L c #000000",
"#M c #000000",
"#N c #000000",
"#O c #000000",
"#P c #000000",
"#Q c #000000",
"#R c #000000",
"#S c #000000",
"#T c #000000",
"#U c #000000",
"#V c #000000",
"#W c #000000",
"#X c #000000",
"#Y c #000000",
"#Z c #000000",
"#0 c #000000",
"#1 c #000000",
"#2 c #000000",
"#3 c #000000",
"#4 c #000000",
"#5 c #000000",
"#6 c #000000",
"#7 c #000000",
"#8 c #000000",
"a` c #000000",
"a. c #000000",
"a# c #000000",
"aa c #000000",
"ab c #000000",
"ac c #000000",
"ad c #000000",
"ae c #000000",
"af c #000000",
"ag c #000000",
"ah c #000000",
"ai c #000000",
"aj c #000000",
"ak c #000000",
"al c #000000",
"am c #000000",
"an c #000000",
"ao c #000000",
"ap c #000000",
"aq c #000000",
"ar c #000000",
"as c #000000",
"at c #000000",
"au c #000000",
"av c #000000",
"aw c #000000",
"ax c #000000",
"ay c #000000",
"az c #000000",
"aA c #000000",
"aB c #000000",
"aC c #000000",
"aD c #000000",
"aE c #000000",
"aF c #000000",
"aG c #000000",
"aH c #000000",
"aI c #000000",
"aJ c #000000",
"aK c #000000",
"aL c #000000",
"aM c #000000",
"aN c #000000",
"aO c #000000",
"aP c #000000",
"aQ c #000000",
"aR c #000000",
"aS c #000000",
"aT c #000000",
"aU c #000000",
"aV c #000000",
"aW c #000000",
"aX c #000000",
"aY c #000000",
"aZ c #000000",
"a0 c #000000",
"a1 c #000000",
"a2 c #000000",
"a3 c #000000",
"a4 c #000000",
"a5 c #000000",
"a6 c #000000",
"a7 c #000000",
"a8 c #000000",
/* pixels */
"`````````````.`#`a`b````````````",
"`````````c`d`e`f`f`g`h`i````````",
"`````j`k`l`m`n`o`p`f`q`r`s`t````",
"```u`v`w`x`y`z`A`B`C`D`E`F`G`H``",
"```I`J`K`L`M`N`O`P`Q`R`S`F`T`U``",
"```V`W`X`Y`Z`0`1`2`3`4`5`6`7````",
"```8.`...#.a.b.c.d.e.f.g````````",
"```8.h.i.j.k.l````.m````````````",
"```8.h.i.j.k.n``````````````````",
"```8.o...p.q.r.s.t.u.v.w````````",
"``.x.`.y.z.A.B.C.D.E.F.G.n.H````",
"``.I.J.K`L`M.L.M.N.O.P`S`F.Q.R``",
"``.S.T`w`x`y.U.V`B`C`D`E`F.W.X``",
"`````j`k.Y.Z`f.0`p`f`q.1.2.3````",
"`````````c`d`e`f`f`g.4`i````````",
"`````````````H.5`a.6````````````"
};
